<?xml version="1.0" ?><svg id="Layer_1" style="enable-background:new 0 0 96 96;" version="1.1" viewBox="0 0 96 96" xml:space="preserve" xmlns="http://www.w3.org/2000/svg" xmlns:xlink="http://www.w3.org/1999/xlink"><path d="M51,0c-24.9,0-45,20.3-45,45.3c0,8.3,2.2,16.3,6.4,23.3L0,96l28.7-11.2c6.8,3.9,14.4,5.9,22.3,5.9c24.9,0,45-20.3,45-45.3  S75.8,0,51,0z M51,86.7c-7.1,0-14.1-1.8-20.3-5.4l-1.7-1L7.7,88.7l9.2-20.3l-1.1-1.8c-3.8-6.4-5.8-13.8-5.8-21.3  C9.9,22.6,28.2,4,51,4c22.8,0,41,18.6,41,41.3S73.7,86.7,51,86.7z M66.7,51.8c-2.9-1.4-7.1-4.1-10.3-2.9c-2,0.8-3,2.6-4.3,4.2  c-2.4-1.2-5.3-3-6.8-4.8c-0.5-0.6-1.8-2.1-2.6-3.2c0.4-0.4,0.8-0.8,1.2-1.5c1.9-2.9,1.9-4.4,0.6-7.5c-0.5-1.2-1-2.5-1.5-3.7  c-1.5-3.5-2.4-6.9-7.1-7c-1.4,0-2.7-0.1-4,0.4c-3.5,1.2-6.3,5.2-7.3,8.7c-1.1,4.1-0.6,7.9,1.1,11.7c1.8,4.1,6.7,10.5,9.9,13.6  c1,0.9,2,1.7,3,2.6c1.1,1,2.3,1.7,3.5,2.5c4.7,3.1,13.7,6.5,19.2,5.4c3.5-0.7,7.6-3.2,9.3-6.4c0.9-1.7,1.5-4.7,1.3-6.7  C71.6,53.9,69.2,53.1,66.7,51.8z M67.1,62.1c-0.9,1.8-3.8,3.8-6.5,4.3c-4.5,0.9-12.7-2.4-16.3-4.8c-1.1-0.8-2-1.3-3.1-2.2  c-1.1-0.9-1.9-1.6-2.8-2.5c-2.8-2.7-7.5-8.9-9-12.3c-1.2-2.8-1.9-5.7-0.9-9c0.7-2.4,2.7-5.3,4.7-5.9c0.7-0.3,1.8-0.2,2.7-0.2  c2.2,0,2.3,1.8,3.5,4.5c0.5,1.3,1,2.5,1.5,3.8c0.8,1.8,0.9,2-0.3,3.7c-2.2,3.3-4.7,1.8,1.7,9.4c2.1,2.6,6.3,5.1,9.6,6.5  c1.8,0.8,2.4-0.5,3.2-1.5c3.5-4.2,1.6-4.6,9.9-0.5c1.8,0.9,2.9,1.1,3.1,2.3C68.1,58.9,67.6,61.2,67.1,62.1z"/></svg>