<?xml version="1.0" encoding="iso-8859-1"?>
<!-- Generator: Adobe Illustrator 16.0.0, SVG Export Plug-In . SVG Version: 6.00 Build 0)  -->
<!DOCTYPE svg PUBLIC "-//W3C//DTD SVG 1.1//EN" "http://www.w3.org/Graphics/SVG/1.1/DTD/svg11.dtd">
<svg version="1.1" id="Capa_1" xmlns="http://www.w3.org/2000/svg" xmlns:xlink="http://www.w3.org/1999/xlink" x="0px" y="0px"
	 width="923.108px" height="923.108px" viewBox="0 0 923.108 923.108" style="enable-background:new 0 0 923.108 923.108;"
	 xml:space="preserve">
<g>
	<path d="M143.655,220.88l41.747-42.251v691.979c0,28.995,23.505,52.5,52.5,52.5c28.995,0,52.5-23.505,52.5-52.5v-690.77
		l42.191,41.689c10.231,10.11,23.566,15.155,36.897,15.155c13.541,0,27.078-5.207,37.347-15.6
		c20.38-20.625,20.18-53.866-0.445-74.245L273.122,15.155C263.292,5.442,250.034,0,236.223,0c-0.104,0-0.21,0-0.314,0.001
		c-13.924,0.083-27.244,5.695-37.03,15.599L68.966,147.081c-20.38,20.625-20.18,53.865,0.445,74.245
		C90.035,241.705,123.277,241.506,143.655,220.88z"/>
	<path d="M517.669,490.443c-37.883,35.971-79.346,68.481-113.338,108.373c-34.75,40.781-58.483,89.425-74.766,140.245
		c-12.067,37.663-18.006,92.34-20.927,127.491c-2.503,30.125,21.079,56.039,51.307,56.336l1.061,0.01
		c27.253,0.269,50.072-20.548,52.333-47.709c2.501-30.042,7.45-77.487,17.215-107.156c18.941-57.552,51.31-112.852,98.602-151.674
		c87.784-72.062,167.552-147.793,191.489-264.023c11.647-56.561,12.422-115.704,16.31-173.24l42.944,42.432
		c10.23,10.11,23.565,15.155,36.896,15.155c13.541,0,27.078-5.207,37.347-15.6c20.381-20.625,20.181-53.866-0.444-74.245
		L720.425,15.155c-20.624-20.379-53.866-20.18-74.244,0.445L516.268,147.081c-20.38,20.625-20.18,53.866,0.445,74.245
		c20.624,20.379,53.866,20.18,74.244-0.445l40.664-41.154c-3.391,50.792-5.903,101.236-15.946,150.999
		C602.646,395.282,564.759,445.73,517.669,490.443z"/>
</g>
<g>
</g>
<g>
</g>
<g>
</g>
<g>
</g>
<g>
</g>
<g>
</g>
<g>
</g>
<g>
</g>
<g>
</g>
<g>
</g>
<g>
</g>
<g>
</g>
<g>
</g>
<g>
</g>
<g>
</g>
</svg>
