<?xml version="1.0" encoding="iso-8859-1"?>
<!-- Generator: Adobe Illustrator 19.0.0, SVG Export Plug-In . SVG Version: 6.00 Build 0)  -->
<svg version="1.1" id="Capa_1" xmlns="http://www.w3.org/2000/svg" xmlns:xlink="http://www.w3.org/1999/xlink" x="0px" y="0px"
	 viewBox="0 0 511 511" style="enable-background:new 0 0 511 511;" xml:space="preserve">
<g>
	<g>
		<path d="M447.5,0h-384C59.357,0,56,3.358,56,7.5v422c0,1.97,0.803,3.91,2.196,5.303l74,74c1.394,1.394,3.333,2.197,5.304,2.197
			h310c4.143,0,7.5-3.358,7.5-7.5v-102c0-4.142-3.357-7.5-7.5-7.5s-7.5,3.358-7.5,7.5V496H145v-66.5c0-4.142-3.357-7.5-7.5-7.5H71
			V15h369v81c0,4.142,3.357,7.5,7.5,7.5s7.5-3.358,7.5-7.5V7.5C455,3.358,451.643,0,447.5,0z M130,485.394L81.606,437H130V485.394z"
			/>
		<path d="M447.5,124.5c-4.143,0-7.5,3.358-7.5,7.5v218c0,4.142,3.357,7.5,7.5,7.5s7.5-3.358,7.5-7.5V132
			C455,127.858,451.643,124.5,447.5,124.5z"/>
		<path d="M279.5,184h-48c-12.958,0-23.5,10.542-23.5,23.5v56c0,4.142,3.357,7.5,7.5,7.5h80c4.143,0,7.5-3.358,7.5-7.5v-56
			C303,194.542,292.458,184,279.5,184z M288,256h-65v-48.5c0-4.687,3.813-8.5,8.5-8.5h48c4.687,0,8.5,3.813,8.5,8.5V256z"/>
		<path d="M255.5,183c21.78,0,39.5-17.72,39.5-39.5S277.28,104,255.5,104c-36.271,0-52.018,24.648-55.276,37.681
			c-1.165,4.663,2.478,9.319,7.276,9.319h9.223C220.238,169.205,236.284,183,255.5,183z M255.5,168
			c-10.894,0-20.146-7.149-23.321-17h46.643C275.646,160.851,266.394,168,255.5,168z M255.5,119c10.895,0,20.151,7.147,23.326,17
			h-59.472C224.571,128.414,235.146,119,255.5,119z"/>
		<path d="M343.5,376h-176c-4.143,0-7.5,3.358-7.5,7.5s3.357,7.5,7.5,7.5h176c4.143,0,7.5-3.358,7.5-7.5S347.643,376,343.5,376z"/>
		<path d="M167.5,431h48c4.143,0,7.5-3.358,7.5-7.5s-3.357-7.5-7.5-7.5h-48c-4.143,0-7.5,3.358-7.5,7.5S163.357,431,167.5,431z"/>
		<path d="M303,423.5c0-4.142-3.357-7.5-7.5-7.5h-48c-4.143,0-7.5,3.358-7.5,7.5s3.357,7.5,7.5,7.5h48
			C299.643,431,303,427.642,303,423.5z"/>
		<path d="M167.5,471h112c4.143,0,7.5-3.358,7.5-7.5s-3.357-7.5-7.5-7.5h-112c-4.143,0-7.5,3.358-7.5,7.5S163.357,471,167.5,471z"/>
		<path d="M343.5,456h-32c-4.143,0-7.5,3.358-7.5,7.5s3.357,7.5,7.5,7.5h32c4.143,0,7.5-3.358,7.5-7.5S347.643,456,343.5,456z"/>
		<path d="M343.5,416h-16c-4.143,0-7.5,3.358-7.5,7.5s3.357,7.5,7.5,7.5h16c4.143,0,7.5-3.358,7.5-7.5S347.643,416,343.5,416z"/>
		<path d="M406.213,207h9.287c4.143,0,7.5-3.358,7.5-7.5s-3.357-7.5-7.5-7.5h-8.506c0-0.167,0.006-0.333,0.006-0.5
			c0-81.023-63.933-147.391-144-151.313V31.5c0-4.142-3.357-7.5-7.5-7.5s-7.5,3.358-7.5,7.5v8.687
			c-80.067,3.923-144,70.291-144,151.313c0,0.167,0.006,0.333,0.006,0.5H95.5c-4.143,0-7.5,3.358-7.5,7.5s3.357,7.5,7.5,7.5h9.287
			c7.537,73.834,68.316,132.144,143.213,135.813v8.687c0,4.142,3.357,7.5,7.5,7.5s7.5-3.358,7.5-7.5v-8.687
			C337.896,339.144,398.676,280.834,406.213,207z M263,327.791V327.5c0-4.142-3.357-7.5-7.5-7.5s-7.5,3.358-7.5,7.5v0.291
			c-66.626-3.626-120.682-55.251-128.117-120.81c3.963-0.201,7.117-3.468,7.117-7.481c0-4.142-3.357-7.5-7.5-7.5h-0.494
			c0-0.167-0.006-0.333-0.006-0.5c0-72.75,57.208-132.384,129-136.291V55.5c0,4.142,3.357,7.5,7.5,7.5s7.5-3.358,7.5-7.5v-0.291
			c71.792,3.907,129,63.542,129,136.291c0,0.167-0.006,0.333-0.006,0.5H391.5c-4.143,0-7.5,3.358-7.5,7.5
			c0,4.013,3.154,7.28,7.117,7.481C383.682,272.54,329.626,324.165,263,327.791z"/>
		<path d="M255.5,72C189.607,72,136,125.607,136,191.5S189.607,311,255.5,311S375,257.393,375,191.5S321.393,72,255.5,72z
			 M255.5,296C197.879,296,151,249.122,151,191.5S197.879,87,255.5,87S360,133.878,360,191.5S313.121,296,255.5,296z"/>
	</g>
</g>
<g>
</g>
<g>
</g>
<g>
</g>
<g>
</g>
<g>
</g>
<g>
</g>
<g>
</g>
<g>
</g>
<g>
</g>
<g>
</g>
<g>
</g>
<g>
</g>
<g>
</g>
<g>
</g>
<g>
</g>
</svg>
