<?xml version="1.0" encoding="iso-8859-1"?>
<!-- Generator: Adobe Illustrator 21.0.0, SVG Export Plug-In . SVG Version: 6.00 Build 0)  -->
<svg version="1.1" id="Layer_1" xmlns="http://www.w3.org/2000/svg" xmlns:xlink="http://www.w3.org/1999/xlink" x="0px" y="0px"
	 viewBox="0 0 100.353 100.353" style="enable-background:new 0 0 100.353 100.353;" xml:space="preserve">
<path style="fill:#231F20;" d="M87.198,45.077c-1.08,0-2.669,0.435-4.104,2.506c-0.062,0.09-0.115,0.186-0.156,0.287
	c-0.782,1.915-2.385,3.1-3.421,3.1c-0.854,0-1.834-0.993-2.594-2.611v-21.99c0-0.829-0.672-1.5-1.5-1.5H53.59
	c-1.777-0.773-2.869-1.797-2.869-2.707c0-0.852,0.993-1.83,2.612-2.591c0.171-0.035,0.339-0.1,0.494-0.197
	c1.863-1.163,2.889-2.711,2.889-4.359c0-3.754-5.222-6.586-12.146-6.586c-6.921,0-12.141,2.832-12.141,6.586
	c0,1.023,0.39,2.485,2.156,3.851c0.165,0.264,0.41,0.474,0.705,0.594c1.934,0.789,3.134,1.869,3.134,2.818
	c0,0.854-0.994,1.832-2.616,2.591H13.721c-0.828,0-1.5,0.671-1.5,1.5v22.297c-0.018,0.238,0.022,0.481,0.12,0.707
	c1.316,3.025,3.258,4.691,5.469,4.691c2.184,0,4.158-1.698,5.456-4.675c0.009-0.012,0.017-0.024,0.025-0.037
	c0.567-0.875,1.203-1.376,1.746-1.376c1.462,0,3.586,3.562,3.586,9.144c0,5.583-2.124,9.145-3.586,9.145
	c-0.516,0-1.119-0.456-1.67-1.258c-1.314-2.995-3.246-4.643-5.443-4.643c-2.262,0-4.302,1.822-5.596,4.999
	c-0.088,0.216-0.123,0.443-0.107,0.666V88.07c0,0.829,0.672,1.5,1.5,1.5H36.13c0.206,0,0.409-0.042,0.599-0.125
	c3.027-1.317,4.695-3.259,4.695-5.467c0-2.146-1.642-4.092-4.525-5.392c-0.054-0.048-0.111-0.094-0.173-0.135
	c-0.486-0.326-1.301-0.979-1.301-1.697c0-1.462,3.562-3.585,9.145-3.585c5.58,0,9.142,2.124,9.142,3.585
	c0,0.492-0.405,1.056-1.126,1.579c-0.059,0.017-0.116,0.038-0.173,0.063c-3.026,1.315-4.692,3.257-4.692,5.466
	c0,2.295,1.776,4.283,5.001,5.596c0.18,0.073,0.371,0.111,0.565,0.111h22.136c0.828,0,1.5-0.671,1.5-1.5v-21.93
	c0.775-1.777,1.799-2.869,2.707-2.869c0.762,0,2.28,1.074,3.182,3.091c0.04,0.108,0.092,0.212,0.156,0.309
	c1.146,1.737,2.648,2.694,4.23,2.694c3.755,0,6.586-5.221,6.586-12.144S90.952,45.077,87.198,45.077z M87.198,66.364
	c-0.509,0-1.106-0.448-1.651-1.234c-1.284-2.867-3.704-4.859-5.917-4.859c-2.263,0-4.303,1.823-5.597,5.001
	c-0.073,0.18-0.11,0.372-0.11,0.565V86.57H53.59c-1.777-0.775-2.869-1.8-2.869-2.707c0-0.837,0.957-1.795,2.522-2.548
	c0.21-0.027,0.418-0.099,0.607-0.218c1.846-1.16,2.861-2.702,2.861-4.342c0-3.754-5.22-6.585-12.142-6.585
	c-6.924,0-12.145,2.831-12.145,6.585c0,1.032,0.397,2.516,2.215,3.893c0.163,0.227,0.389,0.406,0.651,0.514
	c1.933,0.788,3.133,1.867,3.133,2.817c0,0.852-0.995,1.831-2.616,2.591H15.22V66.224c0.774-1.771,1.797-2.859,2.703-2.859
	c0.873,0,1.878,1.042,2.645,2.732c0.04,0.135,0.099,0.265,0.177,0.386c1.158,1.794,2.682,2.783,4.292,2.783
	c3.755,0,6.586-5.221,6.586-12.145c0-6.923-2.831-12.144-6.586-12.144c-1.504,0-2.931,0.859-4.05,2.429
	c-0.155,0.146-0.28,0.325-0.364,0.53c-0.785,1.931-1.863,3.13-2.813,3.13c-0.853,0-1.83-0.99-2.589-2.604V27.871H36.13
	c0.205,0,0.409-0.042,0.598-0.124c3.028-1.314,4.696-3.256,4.696-5.467c0-2.119-1.604-4.045-4.427-5.347
	c-0.071-0.073-0.151-0.139-0.238-0.197c-0.846-0.562-1.33-1.188-1.33-1.72c0-1.462,3.561-3.586,9.141-3.586
	c5.583,0,9.146,2.124,9.146,3.586c0,0.515-0.443,1.107-1.228,1.65c-0.025,0.01-0.051,0.02-0.076,0.031
	c-3.025,1.317-4.691,3.259-4.691,5.466c0,2.265,1.823,4.305,5.002,5.596c0.179,0.073,0.371,0.11,0.564,0.11h20.636v20.812
	c0,0.206,0.042,0.41,0.125,0.599c1.315,3.024,3.258,4.689,5.469,4.689c2.408,0,4.906-1.964,6.128-4.797
	c0.335-0.457,0.918-1.096,1.554-1.096c1.462,0,3.586,3.562,3.586,9.144S88.659,66.364,87.198,66.364z"/>
</svg>
